<?xml version="1.0" standalone="no"?>
<!DOCTYPE svg PUBLIC "-//W3C//DTD SVG 20010904//EN"
 "http://www.w3.org/TR/2001/REC-SVG-20010904/DTD/svg10.dtd">
<svg version="1.0" xmlns="http://www.w3.org/2000/svg"
 width="300.000000pt" height="300.000000pt" viewBox="0 0 300.000000 300.000000"
 preserveAspectRatio="xMidYMid meet">
<metadata>
Created by potrace 1.11, written by Peter Selinger 2001-2013
</metadata>
<g transform="translate(0.000000,300.000000) scale(0.100000,-0.100000)"
fill="#000000" stroke="none">
<path d="M0 1495 l0 -1255 1500 0 1500 0 0 1255 0 1255 -1500 0 -1500 0 0
-1255z m2990 0 l0 -1245 -1485 0 -1485 0 0 1245 0 1245 1485 0 1485 0 0 -1245z"/>
<path d="M1524 2245 c-129 -28 -253 -114 -306 -212 -38 -69 -52 -160 -38 -241
14 -82 37 -126 92 -178 81 -78 181 -120 398 -168 327 -74 420 -134 420 -272 0
-57 -19 -101 -61 -143 -122 -122 -427 -128 -588 -10 -53 38 -97 106 -112 175
l-12 54 -99 0 -98 0 6 -43 c10 -74 42 -171 73 -219 l31 -48 -240 0 -240 0 0
655 0 655 -105 0 -105 0 0 -750 0 -750 639 0 c703 0 736 2 858 59 86 41 175
127 216 210 30 61 32 72 32 171 -1 132 -21 184 -104 263 -92 88 -134 106 -437
182 -236 59 -316 91 -345 139 -58 94 -19 205 91 261 64 32 167 49 259 42 170
-13 266 -82 301 -214 l11 -43 98 0 98 0 -9 63 c-24 182 -172 322 -382 362 -95
18 -259 18 -342 0z"/>
</g>
</svg>
